<?xml version="1.0" encoding="UTF-8" standalone="no"?>
<svg width="167px" height="178px" viewBox="0 0 167 178" version="1.1" xmlns="http://www.w3.org/2000/svg" xmlns:xlink="http://www.w3.org/1999/xlink">
    <!-- Generator: Sketch 42 (36781) - http://www.bohemiancoding.com/sketch -->
    <title>Group 2</title>
    <desc>Created with Sketch.</desc>
    <defs>
        <linearGradient x1="37.8736029%" y1="0.000105569027%" x2="37.8736029%" y2="100.000386%" id="linearGradient-1">
            <stop stop-color="#FFFFFF" stop-opacity="0" offset="0%"></stop>
            <stop stop-color="#FFFFFF" offset="50%"></stop>
            <stop stop-color="#FFFFFF" stop-opacity="0" offset="100%"></stop>
        </linearGradient>
        <radialGradient cx="2.46144296%" cy="49.4097689%" fx="2.46144296%" fy="49.4097689%" r="33.9143023%" id="radialGradient-2">
            <stop stop-color="#FFFFFF" offset="0%"></stop>
            <stop stop-color="#FFFFFF" stop-opacity="0" offset="100%"></stop>
        </radialGradient>
        <radialGradient cx="97.5617186%" cy="49.4097689%" fx="97.5617186%" fy="49.4097689%" r="33.9143023%" id="radialGradient-3">
            <stop stop-color="#FFFFFF" offset="0%"></stop>
            <stop stop-color="#FFFFFF" stop-opacity="0" offset="100%"></stop>
        </radialGradient>
        <radialGradient cx="62.9753213%" cy="92.5394734%" fx="62.9753213%" fy="92.5394734%" r="90.9916867%" id="radialGradient-4">
            <stop stop-color="#202020" offset="0%"></stop>
            <stop stop-color="#B9B9B9" offset="100%"></stop>
        </radialGradient>
        <linearGradient x1="42.8762467%" y1="75.9737102%" x2="35.2271154%" y2="1.73831032%" id="linearGradient-5">
            <stop stop-color="#424242" offset="0%"></stop>
            <stop stop-color="#777777" offset="100%"></stop>
        </linearGradient>
        <linearGradient x1="27.1072427%" y1="7.22604152%" x2="60.6107975%" y2="120.318316%" id="linearGradient-6">
            <stop stop-color="#FFFFFF" stop-opacity="0.87629" offset="0%"></stop>
            <stop stop-color="#FFFFFE" stop-opacity="0" offset="100%"></stop>
        </linearGradient>
        <linearGradient x1="44.264431%" y1="89.5010395%" x2="43.9743438%" y2="68.968815%" id="linearGradient-7">
            <stop stop-color="#6194CB" offset="0%"></stop>
            <stop stop-color="#729FCF" offset="100%"></stop>
        </linearGradient>
        <linearGradient x1="25.0427944%" y1="40.9441238%" x2="24.3545679%" y2="94.5715894%" id="linearGradient-8">
            <stop stop-color="#FFFFFF" offset="0%"></stop>
            <stop stop-color="#FFFFFF" stop-opacity="0" offset="100%"></stop>
        </linearGradient>
    </defs>
    <g id="Page-1" stroke="none" stroke-width="1" fill="none" fill-rule="evenodd">
        <g id="Group-2">
            <text id="01_accessing_data.R" font-family="Iosevka" font-size="3" font-weight="normal" fill="#000000">
                <tspan x="0" y="66">01_accessing_data.R</tspan>
            </text>
            <text id="Data" font-family="Iosevka" font-size="3" font-weight="normal" fill="#000000">
                <tspan x="19" y="178">Data</tspan>
            </text>
            <text id="00_BWGrainfall_data" font-family="Iosevka" font-size="3" font-weight="normal" fill="#000000">
                <tspan x="0" y="148">00_BWGrainfall_data</tspan>
            </text>
            <text id="Paper_5_trophic" font-family="Iosevka" font-size="3" font-weight="normal" fill="#000000">
                <tspan x="126" y="148">Paper_5_trophic</tspan>
            </text>
            <text id="Paper_1_mechanisms" font-family="Iosevka" font-size="3" font-weight="normal" fill="#000000">
                <tspan x="56" y="148">Paper_1_mechanisms</tspan>
            </text>
            <text id="…" font-family="Iosevka" font-size="10" font-weight="normal" fill="#000000">
                <tspan x="105" y="148">…</tspan>
            </text>
            <path d="M32.3210953,43.7376223 L31.3210953,108.215733" id="Line" stroke="#7ED321" stroke-width="4" stroke-linecap="square" transform="translate(31.821095, 76.237622) rotate(23.000000) translate(-31.821095, -76.237622) "></path>
            <polygon id="Triangle" stroke="#7ED321" fill="#B8E986" transform="translate(17.625122, 108.968787) rotate(23.000000) translate(-17.625122, -108.968787) " points="17.625122 116.144793 25.8467447 101.792782 9.40349926 101.792782"></polygon>
            <path d="M32.3210953,43.7376223 L31.3210953,108.215733" id="Line" stroke="#7ED321" stroke-width="4" stroke-linecap="square" transform="translate(31.821095, 76.237622) rotate(23.000000) translate(-31.821095, -76.237622) "></path>
            <polygon id="Triangle" stroke="#7ED321" fill="#B8E986" transform="translate(17.625122, 108.968787) rotate(23.000000) translate(-17.625122, -108.968787) " points="17.625122 116.144793 25.8467447 101.792782 9.40349926 101.792782"></polygon>
            <polygon id="polygon8" fill="#007EE5" fill-rule="nonzero" points="49.8108071 0.168636583 39.2944154 7.05367245 46.5658744 12.8925017 57.1696428 6.32699692"></polygon>
            <polygon id="polygon10" fill="#007EE5" fill-rule="nonzero" points="39.2944154 18.7316745 49.8108071 25.6167104 57.1696428 19.4576629 46.5658744 12.8925017"></polygon>
            <polygon id="polygon12" fill="#007EE5" fill-rule="nonzero" points="57.1696428 19.4576629 64.5284785 25.6167104 75.0448701 18.7316745 67.7734112 12.8925017"></polygon>
            <polygon id="polygon14" fill="#007EE5" fill-rule="nonzero" points="75.0448701 7.05367245 64.5284785 0.168636583 57.1696428 6.32699692 67.7734112 12.8925017"></polygon>
            <polygon id="polygon16" fill="#007EE5" fill-rule="nonzero" points="57.19123 20.7828579 49.8108071 26.9236956 46.6525658 24.8560203 46.6525658 27.1738232 57.19123 33.5105025 67.7298941 27.1738232 67.7298941 24.8560203 64.5716529 26.9236956"></polygon>
            <rect id="rect6709" fill="url(#linearGradient-1)" fill-rule="nonzero" opacity="0.40206" x="4.48383653" y="135.921903" width="16.7656355" height="5.63110673"></rect>
            <path d="M21.2504733,135.922139 L21.2504733,141.552892 C23.0386743,141.563487 25.5732939,140.29132 25.5732939,138.737104 C25.5732939,137.183005 23.5778379,135.922139 21.2504733,135.922139 Z" id="path6711" fill="url(#radialGradient-2)" fill-rule="nonzero" opacity="0.40206"></path>
            <path d="M4.48383653,135.922139 L4.48383653,141.552892 C2.6966368,141.563487 0.161015898,140.29132 0.161015898,138.737104 C0.161015898,137.183005 2.15722288,135.922139 4.48383653,135.922139 L4.48383653,135.922139 Z" id="path6713" fill="url(#radialGradient-3)" fill-rule="nonzero" opacity="0.40206"></path>
            <path d="M2.50142128,139.002923 C2.51348085,139.238154 2.75583404,139.472821 2.98612766,139.472821 L20.3159574,139.472821 C20.5460851,139.472821 20.7645957,139.238154 20.7524255,139.002923 L20.2346383,123.644667 C20.2224681,123.409436 19.9801702,123.174769 19.7494894,123.174769 L12.4086383,123.174769 C12.1397872,123.174769 11.7254468,122.996513 11.6330638,122.550533 L11.2945106,120.918585 C11.208766,120.503574 10.8065957,120.333103 10.5764681,120.333103 L2.40085106,120.333103 C2.17061277,120.333103 1.95237872,120.567938 1.9644383,120.802774 L2.50142128,139.002979 L2.50142128,139.002923 Z" id="path216" stroke="url(#linearGradient-5)" stroke-linecap="round" stroke-linejoin="round" fill="url(#radialGradient-4)" fill-rule="nonzero"></path>
            <path d="M2.89131064,129.906769 L19.6336511,129.906769" id="path9788" stroke="#000000" stroke-linecap="round" stroke-linejoin="round" fill="#729FCF" fill-rule="nonzero" opacity="0.11364"></path>
            <path d="M2.78930213,127.650359 L19.6323234,127.650359" id="path9784" stroke="#000000" stroke-linecap="round" stroke-linejoin="round" fill="#729FCF" fill-rule="nonzero" opacity="0.11364"></path>
            <path d="M2.75528085,124.265744 L19.6314936,124.265744" id="path9778" stroke="#000000" stroke-linecap="round" stroke-linejoin="round" fill="#729FCF" fill-rule="nonzero" opacity="0.11364"></path>
            <path d="M2.9796,135.547795 L19.6356426,135.547795" id="path9798" stroke="#000000" stroke-linecap="round" stroke-linejoin="round" fill="#729FCF" fill-rule="nonzero" opacity="0.11364"></path>
            <path d="M3.04758723,136.676 L19.6366936,136.676" id="path9800" stroke="#000000" stroke-linecap="round" stroke-linejoin="round" fill="#729FCF" fill-rule="nonzero" opacity="0.11364"></path>
            <path d="M2.78930213,126.522154 L19.6323234,126.522154" id="path9782" stroke="#000000" stroke-linecap="round" stroke-linejoin="round" fill="#729FCF" fill-rule="nonzero" opacity="0.11364"></path>
            <path d="M2.77226383,125.393949 L19.632434,125.393949" id="path9780" stroke="#000000" stroke-linecap="round" stroke-linejoin="round" fill="#729FCF" fill-rule="nonzero" opacity="0.11364"></path>
            <path d="M2.72286383,123.137538 L11.176183,123.137538" id="path9776" stroke="#000000" stroke-linecap="round" stroke-linejoin="round" fill="#729FCF" fill-rule="nonzero" opacity="0.11364"></path>
            <path d="M2.69614468,122.009615 L10.8739745,122.009615" id="path9774" stroke="#000000" stroke-linecap="round" stroke-linejoin="round" fill="#729FCF" fill-rule="nonzero" opacity="0.11364"></path>
            <path d="M2.94557872,133.291385 L19.6348128,133.291385" id="path9794" stroke="#000000" stroke-linecap="round" stroke-linejoin="round" fill="#729FCF" fill-rule="nonzero" opacity="0.11364"></path>
            <path d="M2.92533191,132.163179 L19.6344809,132.163179" id="path9792" stroke="#000000" stroke-linecap="round" stroke-linejoin="round" fill="#729FCF" fill-rule="nonzero" opacity="0.11364"></path>
            <path d="M2.89131064,131.034974 L19.6336511,131.034974" id="path9790" stroke="#000000" stroke-linecap="round" stroke-linejoin="round" fill="#729FCF" fill-rule="nonzero" opacity="0.11364"></path>
            <path d="M2.87432766,128.778564 L19.633817,128.778564" id="path9786" stroke="#000000" stroke-linecap="round" stroke-linejoin="round" fill="#729FCF" fill-rule="nonzero" opacity="0.11364"></path>
            <path d="M2.94557872,134.41959 L19.6348128,134.41959" id="path9796" stroke="#000000" stroke-linecap="round" stroke-linejoin="round" fill="#729FCF" fill-rule="nonzero" opacity="0.11364"></path>
            <path d="M3.04758723,137.804205 L19.6366936,137.804205" id="path9802" stroke="#000000" stroke-linecap="round" stroke-linejoin="round" fill="#729FCF" fill-rule="nonzero" opacity="0.11364"></path>
            <path d="M3.35693191,139.102769 C3.36600426,139.278769 3.25685957,139.396103 3.08116596,139.337436 C2.90541702,139.278769 2.78421277,139.161436 2.77519574,138.985436 L2.25093617,120.897487 C2.24186383,120.7216 2.34226809,120.61521 2.51502979,120.61521 L10.4931574,120.588303 C10.6663064,120.588303 11.0087319,120.757815 11.1199234,121.334159 L11.4374553,122.922615 C11.2012426,122.659969 11.2056681,122.651846 11.0845191,122.269892 L10.8599234,121.559574 C10.7387745,121.149133 10.4737957,121.090297 10.3012,121.090297 L3.17166809,121.090297 C2.9989617,121.090297 2.88981702,121.207744 2.89888936,121.383856 L3.41778298,139.161549 L3.35715319,139.102882 L3.35693191,139.102769 Z" id="path219" fill="url(#linearGradient-6)" fill-rule="nonzero" opacity="0.45143"></path>
            <path d="M19.9008617,123.691423 C19.9037405,123.634336 19.8271642,123.546206 19.7655577,123.546206 L12.2628069,123.544972 C12.2628069,123.544972 12.7873259,123.890611 13.5300585,123.895491 L19.8945283,123.937233 C19.9008617,123.81277 19.8962556,123.786725 19.9008617,123.691423 L19.9008617,123.691423 Z" id="path221" fill-opacity="0.50847" fill="#FFFFFF" fill-rule="nonzero" transform="translate(16.081874, 124.044972) rotate(-2.997089) translate(-16.081874, -124.044972) "></path>
            <path d="M22.0081702,139.467744 C22.6404681,139.442923 23.0940851,138.848923 23.1405532,138.158462 C23.5781277,131.643641 24.0582979,126.181436 24.0582979,126.181436 C24.0981277,126.041538 23.9653617,125.902205 23.792766,125.902205 L4.77902128,125.902205 C4.7788,125.902205 3.75522979,138.237436 3.75522979,138.237436 C3.69188936,138.791385 3.49744255,139.255077 2.89789362,139.468872 L22.0084468,139.467744 L22.0081702,139.467744 Z" id="path233" stroke="#3465A4" stroke-linejoin="round" fill="url(#linearGradient-7)" fill-rule="nonzero"></path>
            <path d="M5.32181277,126.466872 L23.4615149,126.503538 L22.5907915,137.786718 C22.5443234,138.390872 22.3418553,138.592256 21.555217,138.592256 C20.5196426,138.592256 5.69079149,138.574205 4.18777021,138.574205 C4.31694043,138.393128 4.37237021,138.016308 4.37308936,138.007282 L5.3219234,126.466872 L5.32181277,126.466872 Z" id="path304" stroke="url(#linearGradient-8)" stroke-linecap="round" opacity="0.46591"></path>
            <path d="M5.32181277,126.330923 L4.67645957,135.155179 C4.67645957,135.155179 9.26595745,132.815282 15.0023319,132.815282 C20.7387064,132.815282 23.6072255,126.330923 23.6072255,126.330923 L5.32148085,126.330923 L5.32181277,126.330923 Z" id="path323" fill-opacity="0.089286" fill="#FFFFFF"></path>
            <rect id="rect6709" fill="url(#linearGradient-1)" fill-rule="nonzero" opacity="0.40206" x="130.483837" y="135.921903" width="16.7656355" height="5.63110673"></rect>
            <path d="M147.250473,135.922139 L147.250473,141.552892 C149.038674,141.563487 151.573294,140.29132 151.573294,138.737104 C151.573294,137.183005 149.577838,135.922139 147.250473,135.922139 Z" id="path6711" fill="url(#radialGradient-2)" fill-rule="nonzero" opacity="0.40206"></path>
            <path d="M130.483837,135.922139 L130.483837,141.552892 C128.696637,141.563487 126.161016,140.29132 126.161016,138.737104 C126.161016,137.183005 128.157223,135.922139 130.483837,135.922139 L130.483837,135.922139 Z" id="path6713" fill="url(#radialGradient-3)" fill-rule="nonzero" opacity="0.40206"></path>
            <path d="M128.501421,139.002923 C128.513481,139.238154 128.755834,139.472821 128.986128,139.472821 L146.315957,139.472821 C146.546085,139.472821 146.764596,139.238154 146.752426,139.002923 L146.234638,123.644667 C146.222468,123.409436 145.98017,123.174769 145.749489,123.174769 L138.408638,123.174769 C138.139787,123.174769 137.725447,122.996513 137.633064,122.550533 L137.294511,120.918585 C137.208766,120.503574 136.806596,120.333103 136.576468,120.333103 L128.400851,120.333103 C128.170613,120.333103 127.952379,120.567938 127.964438,120.802774 L128.501421,139.002979 L128.501421,139.002923 Z" id="path216" stroke="url(#linearGradient-5)" stroke-linecap="round" stroke-linejoin="round" fill="url(#radialGradient-4)" fill-rule="nonzero"></path>
            <path d="M128.891311,129.906769 L145.633651,129.906769" id="path9788" stroke="#000000" stroke-linecap="round" stroke-linejoin="round" fill="#729FCF" fill-rule="nonzero" opacity="0.11364"></path>
            <path d="M128.789302,127.650359 L145.632323,127.650359" id="path9784" stroke="#000000" stroke-linecap="round" stroke-linejoin="round" fill="#729FCF" fill-rule="nonzero" opacity="0.11364"></path>
            <path d="M128.755281,124.265744 L145.631494,124.265744" id="path9778" stroke="#000000" stroke-linecap="round" stroke-linejoin="round" fill="#729FCF" fill-rule="nonzero" opacity="0.11364"></path>
            <path d="M128.9796,135.547795 L145.635643,135.547795" id="path9798" stroke="#000000" stroke-linecap="round" stroke-linejoin="round" fill="#729FCF" fill-rule="nonzero" opacity="0.11364"></path>
            <path d="M129.047587,136.676 L145.636694,136.676" id="path9800" stroke="#000000" stroke-linecap="round" stroke-linejoin="round" fill="#729FCF" fill-rule="nonzero" opacity="0.11364"></path>
            <path d="M128.789302,126.522154 L145.632323,126.522154" id="path9782" stroke="#000000" stroke-linecap="round" stroke-linejoin="round" fill="#729FCF" fill-rule="nonzero" opacity="0.11364"></path>
            <path d="M128.772264,125.393949 L145.632434,125.393949" id="path9780" stroke="#000000" stroke-linecap="round" stroke-linejoin="round" fill="#729FCF" fill-rule="nonzero" opacity="0.11364"></path>
            <path d="M128.722864,123.137538 L137.176183,123.137538" id="path9776" stroke="#000000" stroke-linecap="round" stroke-linejoin="round" fill="#729FCF" fill-rule="nonzero" opacity="0.11364"></path>
            <path d="M128.696145,122.009615 L136.873974,122.009615" id="path9774" stroke="#000000" stroke-linecap="round" stroke-linejoin="round" fill="#729FCF" fill-rule="nonzero" opacity="0.11364"></path>
            <path d="M128.945579,133.291385 L145.634813,133.291385" id="path9794" stroke="#000000" stroke-linecap="round" stroke-linejoin="round" fill="#729FCF" fill-rule="nonzero" opacity="0.11364"></path>
            <path d="M128.925332,132.163179 L145.634481,132.163179" id="path9792" stroke="#000000" stroke-linecap="round" stroke-linejoin="round" fill="#729FCF" fill-rule="nonzero" opacity="0.11364"></path>
            <path d="M128.891311,131.034974 L145.633651,131.034974" id="path9790" stroke="#000000" stroke-linecap="round" stroke-linejoin="round" fill="#729FCF" fill-rule="nonzero" opacity="0.11364"></path>
            <path d="M128.874328,128.778564 L145.633817,128.778564" id="path9786" stroke="#000000" stroke-linecap="round" stroke-linejoin="round" fill="#729FCF" fill-rule="nonzero" opacity="0.11364"></path>
            <path d="M128.945579,134.41959 L145.634813,134.41959" id="path9796" stroke="#000000" stroke-linecap="round" stroke-linejoin="round" fill="#729FCF" fill-rule="nonzero" opacity="0.11364"></path>
            <path d="M129.047587,137.804205 L145.636694,137.804205" id="path9802" stroke="#000000" stroke-linecap="round" stroke-linejoin="round" fill="#729FCF" fill-rule="nonzero" opacity="0.11364"></path>
            <path d="M129.356932,139.102769 C129.366004,139.278769 129.25686,139.396103 129.081166,139.337436 C128.905417,139.278769 128.784213,139.161436 128.775196,138.985436 L128.250936,120.897487 C128.241864,120.7216 128.342268,120.61521 128.51503,120.61521 L136.493157,120.588303 C136.666306,120.588303 137.008732,120.757815 137.119923,121.334159 L137.437455,122.922615 C137.201243,122.659969 137.205668,122.651846 137.084519,122.269892 L136.859923,121.559574 C136.738774,121.149133 136.473796,121.090297 136.3012,121.090297 L129.171668,121.090297 C128.998962,121.090297 128.889817,121.207744 128.898889,121.383856 L129.417783,139.161549 L129.357153,139.102882 L129.356932,139.102769 Z" id="path219" fill="url(#linearGradient-6)" fill-rule="nonzero" opacity="0.45143"></path>
            <path d="M145.900862,123.691423 C145.90374,123.634336 145.827164,123.546206 145.765558,123.546206 L138.262807,123.544972 C138.262807,123.544972 138.787326,123.890611 139.530058,123.895491 L145.894528,123.937233 C145.900862,123.81277 145.896256,123.786725 145.900862,123.691423 L145.900862,123.691423 Z" id="path221" fill-opacity="0.50847" fill="#FFFFFF" fill-rule="nonzero" transform="translate(142.081874, 124.044972) rotate(-2.997089) translate(-142.081874, -124.044972) "></path>
            <path d="M148.00817,139.467744 C148.640468,139.442923 149.094085,138.848923 149.140553,138.158462 C149.578128,131.643641 150.058298,126.181436 150.058298,126.181436 C150.098128,126.041538 149.965362,125.902205 149.792766,125.902205 L130.779021,125.902205 C130.7788,125.902205 129.75523,138.237436 129.75523,138.237436 C129.691889,138.791385 129.497443,139.255077 128.897894,139.468872 L148.008447,139.467744 L148.00817,139.467744 Z" id="path233" stroke="#3465A4" stroke-linejoin="round" fill="url(#linearGradient-7)" fill-rule="nonzero"></path>
            <path d="M131.321813,126.466872 L149.461515,126.503538 L148.590791,137.786718 C148.544323,138.390872 148.341855,138.592256 147.555217,138.592256 C146.519643,138.592256 131.690791,138.574205 130.18777,138.574205 C130.31694,138.393128 130.37237,138.016308 130.373089,138.007282 L131.321923,126.466872 L131.321813,126.466872 Z" id="path304" stroke="url(#linearGradient-8)" stroke-linecap="round" opacity="0.46591"></path>
            <path d="M131.321813,126.330923 L130.67646,135.155179 C130.67646,135.155179 135.265957,132.815282 141.002332,132.815282 C146.738706,132.815282 149.607226,126.330923 149.607226,126.330923 L131.321481,126.330923 L131.321813,126.330923 Z" id="path323" fill-opacity="0.089286" fill="#FFFFFF"></path>
            <rect id="rect6709" fill="url(#linearGradient-1)" fill-rule="nonzero" opacity="0.40206" x="66.4838365" y="135.921903" width="16.7656355" height="5.63110673"></rect>
            <path d="M83.2504733,135.922139 L83.2504733,141.552892 C85.0386743,141.563487 87.5732939,140.29132 87.5732939,138.737104 C87.5732939,137.183005 85.5778379,135.922139 83.2504733,135.922139 Z" id="path6711" fill="url(#radialGradient-2)" fill-rule="nonzero" opacity="0.40206"></path>
            <path d="M66.4838365,135.922139 L66.4838365,141.552892 C64.6966368,141.563487 62.1610159,140.29132 62.1610159,138.737104 C62.1610159,137.183005 64.1572229,135.922139 66.4838365,135.922139 L66.4838365,135.922139 Z" id="path6713" fill="url(#radialGradient-3)" fill-rule="nonzero" opacity="0.40206"></path>
            <path d="M64.5014213,139.002923 C64.5134809,139.238154 64.755834,139.472821 64.9861277,139.472821 L82.3159574,139.472821 C82.5460851,139.472821 82.7645957,139.238154 82.7524255,139.002923 L82.2346383,123.644667 C82.2224681,123.409436 81.9801702,123.174769 81.7494894,123.174769 L74.4086383,123.174769 C74.1397872,123.174769 73.7254468,122.996513 73.6330638,122.550533 L73.2945106,120.918585 C73.208766,120.503574 72.8065957,120.333103 72.5764681,120.333103 L64.4008511,120.333103 C64.1706128,120.333103 63.9523787,120.567938 63.9644383,120.802774 L64.5014213,139.002979 L64.5014213,139.002923 Z" id="path216" stroke="url(#linearGradient-5)" stroke-linecap="round" stroke-linejoin="round" fill="url(#radialGradient-4)" fill-rule="nonzero"></path>
            <path d="M64.8913106,129.906769 L81.6336511,129.906769" id="path9788" stroke="#000000" stroke-linecap="round" stroke-linejoin="round" fill="#729FCF" fill-rule="nonzero" opacity="0.11364"></path>
            <path d="M64.7893021,127.650359 L81.6323234,127.650359" id="path9784" stroke="#000000" stroke-linecap="round" stroke-linejoin="round" fill="#729FCF" fill-rule="nonzero" opacity="0.11364"></path>
            <path d="M64.7552809,124.265744 L81.6314936,124.265744" id="path9778" stroke="#000000" stroke-linecap="round" stroke-linejoin="round" fill="#729FCF" fill-rule="nonzero" opacity="0.11364"></path>
            <path d="M64.9796,135.547795 L81.6356426,135.547795" id="path9798" stroke="#000000" stroke-linecap="round" stroke-linejoin="round" fill="#729FCF" fill-rule="nonzero" opacity="0.11364"></path>
            <path d="M65.0475872,136.676 L81.6366936,136.676" id="path9800" stroke="#000000" stroke-linecap="round" stroke-linejoin="round" fill="#729FCF" fill-rule="nonzero" opacity="0.11364"></path>
            <path d="M64.7893021,126.522154 L81.6323234,126.522154" id="path9782" stroke="#000000" stroke-linecap="round" stroke-linejoin="round" fill="#729FCF" fill-rule="nonzero" opacity="0.11364"></path>
            <path d="M64.7722638,125.393949 L81.632434,125.393949" id="path9780" stroke="#000000" stroke-linecap="round" stroke-linejoin="round" fill="#729FCF" fill-rule="nonzero" opacity="0.11364"></path>
            <path d="M64.7228638,123.137538 L73.176183,123.137538" id="path9776" stroke="#000000" stroke-linecap="round" stroke-linejoin="round" fill="#729FCF" fill-rule="nonzero" opacity="0.11364"></path>
            <path d="M64.6961447,122.009615 L72.8739745,122.009615" id="path9774" stroke="#000000" stroke-linecap="round" stroke-linejoin="round" fill="#729FCF" fill-rule="nonzero" opacity="0.11364"></path>
            <path d="M64.9455787,133.291385 L81.6348128,133.291385" id="path9794" stroke="#000000" stroke-linecap="round" stroke-linejoin="round" fill="#729FCF" fill-rule="nonzero" opacity="0.11364"></path>
            <path d="M64.9253319,132.163179 L81.6344809,132.163179" id="path9792" stroke="#000000" stroke-linecap="round" stroke-linejoin="round" fill="#729FCF" fill-rule="nonzero" opacity="0.11364"></path>
            <path d="M64.8913106,131.034974 L81.6336511,131.034974" id="path9790" stroke="#000000" stroke-linecap="round" stroke-linejoin="round" fill="#729FCF" fill-rule="nonzero" opacity="0.11364"></path>
            <path d="M64.8743277,128.778564 L81.633817,128.778564" id="path9786" stroke="#000000" stroke-linecap="round" stroke-linejoin="round" fill="#729FCF" fill-rule="nonzero" opacity="0.11364"></path>
            <path d="M64.9455787,134.41959 L81.6348128,134.41959" id="path9796" stroke="#000000" stroke-linecap="round" stroke-linejoin="round" fill="#729FCF" fill-rule="nonzero" opacity="0.11364"></path>
            <path d="M65.0475872,137.804205 L81.6366936,137.804205" id="path9802" stroke="#000000" stroke-linecap="round" stroke-linejoin="round" fill="#729FCF" fill-rule="nonzero" opacity="0.11364"></path>
            <path d="M65.3569319,139.102769 C65.3660043,139.278769 65.2568596,139.396103 65.081166,139.337436 C64.905417,139.278769 64.7842128,139.161436 64.7751957,138.985436 L64.2509362,120.897487 C64.2418638,120.7216 64.3422681,120.61521 64.5150298,120.61521 L72.4931574,120.588303 C72.6663064,120.588303 73.0087319,120.757815 73.1199234,121.334159 L73.4374553,122.922615 C73.2012426,122.659969 73.2056681,122.651846 73.0845191,122.269892 L72.8599234,121.559574 C72.7387745,121.149133 72.4737957,121.090297 72.3012,121.090297 L65.1716681,121.090297 C64.9989617,121.090297 64.889817,121.207744 64.8988894,121.383856 L65.417783,139.161549 L65.3571532,139.102882 L65.3569319,139.102769 Z" id="path219" fill="url(#linearGradient-6)" fill-rule="nonzero" opacity="0.45143"></path>
            <path d="M81.9008617,123.691423 C81.9037405,123.634336 81.8271642,123.546206 81.7655577,123.546206 L74.2628069,123.544972 C74.2628069,123.544972 74.7873259,123.890611 75.5300585,123.895491 L81.8945283,123.937233 C81.9008617,123.81277 81.8962556,123.786725 81.9008617,123.691423 L81.9008617,123.691423 Z" id="path221" fill-opacity="0.50847" fill="#FFFFFF" fill-rule="nonzero" transform="translate(78.081874, 124.044972) rotate(-2.997089) translate(-78.081874, -124.044972) "></path>
            <path d="M84.0081702,139.467744 C84.6404681,139.442923 85.0940851,138.848923 85.1405532,138.158462 C85.5781277,131.643641 86.0582979,126.181436 86.0582979,126.181436 C86.0981277,126.041538 85.9653617,125.902205 85.792766,125.902205 L66.7790213,125.902205 C66.7788,125.902205 65.7552298,138.237436 65.7552298,138.237436 C65.6918894,138.791385 65.4974426,139.255077 64.8978936,139.468872 L84.0084468,139.467744 L84.0081702,139.467744 Z" id="path233" stroke="#3465A4" stroke-linejoin="round" fill="url(#linearGradient-7)" fill-rule="nonzero"></path>
            <path d="M67.3218128,126.466872 L85.4615149,126.503538 L84.5907915,137.786718 C84.5443234,138.390872 84.3418553,138.592256 83.555217,138.592256 C82.5196426,138.592256 67.6907915,138.574205 66.1877702,138.574205 C66.3169404,138.393128 66.3723702,138.016308 66.3730894,138.007282 L67.3219234,126.466872 L67.3218128,126.466872 Z" id="path304" stroke="url(#linearGradient-8)" stroke-linecap="round" opacity="0.46591"></path>
            <path d="M67.3218128,126.330923 L66.6764596,135.155179 C66.6764596,135.155179 71.2659574,132.815282 77.0023319,132.815282 C82.7387064,132.815282 85.6072255,126.330923 85.6072255,126.330923 L67.3214809,126.330923 L67.3218128,126.330923 Z" id="path323" fill-opacity="0.089286" fill="#FFFFFF"></path>
            <polygon id="polygon8" fill="#007EE5" fill-rule="nonzero" points="49.8108071 0.168636583 39.2944154 7.05367245 46.5658744 12.8925017 57.1696428 6.32699692"></polygon>
            <polygon id="polygon10" fill="#007EE5" fill-rule="nonzero" points="39.2944154 18.7316745 49.8108071 25.6167104 57.1696428 19.4576629 46.5658744 12.8925017"></polygon>
            <polygon id="polygon12" fill="#007EE5" fill-rule="nonzero" points="57.1696428 19.4576629 64.5284785 25.6167104 75.0448701 18.7316745 67.7734112 12.8925017"></polygon>
            <polygon id="polygon14" fill="#007EE5" fill-rule="nonzero" points="75.0448701 7.05367245 64.5284785 0.168636583 57.1696428 6.32699692 67.7734112 12.8925017"></polygon>
            <polygon id="polygon16" fill="#007EE5" fill-rule="nonzero" points="57.19123 20.7828579 49.8108071 26.9236956 46.6525658 24.8560203 46.6525658 27.1738232 57.19123 33.5105025 67.7298941 27.1738232 67.7298941 24.8560203 64.5716529 26.9236956"></polygon>
            <rect id="rect6709" fill="url(#linearGradient-1)" fill-rule="nonzero" opacity="0.40206" x="4.48383653" y="135.921903" width="16.7656355" height="5.63110673"></rect>
            <path d="M21.2504733,135.922139 L21.2504733,141.552892 C23.0386743,141.563487 25.5732939,140.29132 25.5732939,138.737104 C25.5732939,137.183005 23.5778379,135.922139 21.2504733,135.922139 Z" id="path6711" fill="url(#radialGradient-2)" fill-rule="nonzero" opacity="0.40206"></path>
            <path d="M4.48383653,135.922139 L4.48383653,141.552892 C2.6966368,141.563487 0.161015898,140.29132 0.161015898,138.737104 C0.161015898,137.183005 2.15722288,135.922139 4.48383653,135.922139 L4.48383653,135.922139 Z" id="path6713" fill="url(#radialGradient-3)" fill-rule="nonzero" opacity="0.40206"></path>
            <path d="M2.50142128,139.002923 C2.51348085,139.238154 2.75583404,139.472821 2.98612766,139.472821 L20.3159574,139.472821 C20.5460851,139.472821 20.7645957,139.238154 20.7524255,139.002923 L20.2346383,123.644667 C20.2224681,123.409436 19.9801702,123.174769 19.7494894,123.174769 L12.4086383,123.174769 C12.1397872,123.174769 11.7254468,122.996513 11.6330638,122.550533 L11.2945106,120.918585 C11.208766,120.503574 10.8065957,120.333103 10.5764681,120.333103 L2.40085106,120.333103 C2.17061277,120.333103 1.95237872,120.567938 1.9644383,120.802774 L2.50142128,139.002979 L2.50142128,139.002923 Z" id="path216" stroke="url(#linearGradient-5)" stroke-linecap="round" stroke-linejoin="round" fill="url(#radialGradient-4)" fill-rule="nonzero"></path>
            <path d="M2.89131064,129.906769 L19.6336511,129.906769" id="path9788" stroke="#000000" stroke-linecap="round" stroke-linejoin="round" fill="#729FCF" fill-rule="nonzero" opacity="0.11364"></path>
            <path d="M2.78930213,127.650359 L19.6323234,127.650359" id="path9784" stroke="#000000" stroke-linecap="round" stroke-linejoin="round" fill="#729FCF" fill-rule="nonzero" opacity="0.11364"></path>
            <path d="M2.75528085,124.265744 L19.6314936,124.265744" id="path9778" stroke="#000000" stroke-linecap="round" stroke-linejoin="round" fill="#729FCF" fill-rule="nonzero" opacity="0.11364"></path>
            <path d="M2.9796,135.547795 L19.6356426,135.547795" id="path9798" stroke="#000000" stroke-linecap="round" stroke-linejoin="round" fill="#729FCF" fill-rule="nonzero" opacity="0.11364"></path>
            <path d="M3.04758723,136.676 L19.6366936,136.676" id="path9800" stroke="#000000" stroke-linecap="round" stroke-linejoin="round" fill="#729FCF" fill-rule="nonzero" opacity="0.11364"></path>
            <path d="M2.78930213,126.522154 L19.6323234,126.522154" id="path9782" stroke="#000000" stroke-linecap="round" stroke-linejoin="round" fill="#729FCF" fill-rule="nonzero" opacity="0.11364"></path>
            <path d="M2.77226383,125.393949 L19.632434,125.393949" id="path9780" stroke="#000000" stroke-linecap="round" stroke-linejoin="round" fill="#729FCF" fill-rule="nonzero" opacity="0.11364"></path>
            <path d="M2.72286383,123.137538 L11.176183,123.137538" id="path9776" stroke="#000000" stroke-linecap="round" stroke-linejoin="round" fill="#729FCF" fill-rule="nonzero" opacity="0.11364"></path>
            <path d="M2.69614468,122.009615 L10.8739745,122.009615" id="path9774" stroke="#000000" stroke-linecap="round" stroke-linejoin="round" fill="#729FCF" fill-rule="nonzero" opacity="0.11364"></path>
            <path d="M2.94557872,133.291385 L19.6348128,133.291385" id="path9794" stroke="#000000" stroke-linecap="round" stroke-linejoin="round" fill="#729FCF" fill-rule="nonzero" opacity="0.11364"></path>
            <path d="M2.92533191,132.163179 L19.6344809,132.163179" id="path9792" stroke="#000000" stroke-linecap="round" stroke-linejoin="round" fill="#729FCF" fill-rule="nonzero" opacity="0.11364"></path>
            <path d="M2.89131064,131.034974 L19.6336511,131.034974" id="path9790" stroke="#000000" stroke-linecap="round" stroke-linejoin="round" fill="#729FCF" fill-rule="nonzero" opacity="0.11364"></path>
            <path d="M2.87432766,128.778564 L19.633817,128.778564" id="path9786" stroke="#000000" stroke-linecap="round" stroke-linejoin="round" fill="#729FCF" fill-rule="nonzero" opacity="0.11364"></path>
            <path d="M2.94557872,134.41959 L19.6348128,134.41959" id="path9796" stroke="#000000" stroke-linecap="round" stroke-linejoin="round" fill="#729FCF" fill-rule="nonzero" opacity="0.11364"></path>
            <path d="M3.04758723,137.804205 L19.6366936,137.804205" id="path9802" stroke="#000000" stroke-linecap="round" stroke-linejoin="round" fill="#729FCF" fill-rule="nonzero" opacity="0.11364"></path>
            <path d="M3.35693191,139.102769 C3.36600426,139.278769 3.25685957,139.396103 3.08116596,139.337436 C2.90541702,139.278769 2.78421277,139.161436 2.77519574,138.985436 L2.25093617,120.897487 C2.24186383,120.7216 2.34226809,120.61521 2.51502979,120.61521 L10.4931574,120.588303 C10.6663064,120.588303 11.0087319,120.757815 11.1199234,121.334159 L11.4374553,122.922615 C11.2012426,122.659969 11.2056681,122.651846 11.0845191,122.269892 L10.8599234,121.559574 C10.7387745,121.149133 10.4737957,121.090297 10.3012,121.090297 L3.17166809,121.090297 C2.9989617,121.090297 2.88981702,121.207744 2.89888936,121.383856 L3.41778298,139.161549 L3.35715319,139.102882 L3.35693191,139.102769 Z" id="path219" fill="url(#linearGradient-6)" fill-rule="nonzero" opacity="0.45143"></path>
            <path d="M19.9008617,123.691423 C19.9037405,123.634336 19.8271642,123.546206 19.7655577,123.546206 L12.2628069,123.544972 C12.2628069,123.544972 12.7873259,123.890611 13.5300585,123.895491 L19.8945283,123.937233 C19.9008617,123.81277 19.8962556,123.786725 19.9008617,123.691423 L19.9008617,123.691423 Z" id="path221" fill-opacity="0.50847" fill="#FFFFFF" fill-rule="nonzero" transform="translate(16.081874, 124.044972) rotate(-2.997089) translate(-16.081874, -124.044972) "></path>
            <path d="M22.0081702,139.467744 C22.6404681,139.442923 23.0940851,138.848923 23.1405532,138.158462 C23.5781277,131.643641 24.0582979,126.181436 24.0582979,126.181436 C24.0981277,126.041538 23.9653617,125.902205 23.792766,125.902205 L4.77902128,125.902205 C4.7788,125.902205 3.75522979,138.237436 3.75522979,138.237436 C3.69188936,138.791385 3.49744255,139.255077 2.89789362,139.468872 L22.0084468,139.467744 L22.0081702,139.467744 Z" id="path233" stroke="#3465A4" stroke-linejoin="round" fill="url(#linearGradient-7)" fill-rule="nonzero"></path>
            <path d="M5.32181277,126.466872 L23.4615149,126.503538 L22.5907915,137.786718 C22.5443234,138.390872 22.3418553,138.592256 21.555217,138.592256 C20.5196426,138.592256 5.69079149,138.574205 4.18777021,138.574205 C4.31694043,138.393128 4.37237021,138.016308 4.37308936,138.007282 L5.3219234,126.466872 L5.32181277,126.466872 Z" id="path304" stroke="url(#linearGradient-8)" stroke-linecap="round" opacity="0.46591"></path>
            <path d="M5.32181277,126.330923 L4.67645957,135.155179 C4.67645957,135.155179 9.26595745,132.815282 15.0023319,132.815282 C20.7387064,132.815282 23.6072255,126.330923 23.6072255,126.330923 L5.32148085,126.330923 L5.32181277,126.330923 Z" id="path323" fill-opacity="0.089286" fill="#FFFFFF"></path>
            <rect id="rect6709" fill="url(#linearGradient-1)" fill-rule="nonzero" opacity="0.40206" x="130.483837" y="135.921903" width="16.7656355" height="5.63110673"></rect>
            <path d="M147.250473,135.922139 L147.250473,141.552892 C149.038674,141.563487 151.573294,140.29132 151.573294,138.737104 C151.573294,137.183005 149.577838,135.922139 147.250473,135.922139 Z" id="path6711" fill="url(#radialGradient-2)" fill-rule="nonzero" opacity="0.40206"></path>
            <path d="M130.483837,135.922139 L130.483837,141.552892 C128.696637,141.563487 126.161016,140.29132 126.161016,138.737104 C126.161016,137.183005 128.157223,135.922139 130.483837,135.922139 L130.483837,135.922139 Z" id="path6713" fill="url(#radialGradient-3)" fill-rule="nonzero" opacity="0.40206"></path>
            <path d="M128.501421,139.002923 C128.513481,139.238154 128.755834,139.472821 128.986128,139.472821 L146.315957,139.472821 C146.546085,139.472821 146.764596,139.238154 146.752426,139.002923 L146.234638,123.644667 C146.222468,123.409436 145.98017,123.174769 145.749489,123.174769 L138.408638,123.174769 C138.139787,123.174769 137.725447,122.996513 137.633064,122.550533 L137.294511,120.918585 C137.208766,120.503574 136.806596,120.333103 136.576468,120.333103 L128.400851,120.333103 C128.170613,120.333103 127.952379,120.567938 127.964438,120.802774 L128.501421,139.002979 L128.501421,139.002923 Z" id="path216" stroke="url(#linearGradient-5)" stroke-linecap="round" stroke-linejoin="round" fill="url(#radialGradient-4)" fill-rule="nonzero"></path>
            <path d="M128.891311,129.906769 L145.633651,129.906769" id="path9788" stroke="#000000" stroke-linecap="round" stroke-linejoin="round" fill="#729FCF" fill-rule="nonzero" opacity="0.11364"></path>
            <path d="M128.789302,127.650359 L145.632323,127.650359" id="path9784" stroke="#000000" stroke-linecap="round" stroke-linejoin="round" fill="#729FCF" fill-rule="nonzero" opacity="0.11364"></path>
            <path d="M128.755281,124.265744 L145.631494,124.265744" id="path9778" stroke="#000000" stroke-linecap="round" stroke-linejoin="round" fill="#729FCF" fill-rule="nonzero" opacity="0.11364"></path>
            <path d="M128.9796,135.547795 L145.635643,135.547795" id="path9798" stroke="#000000" stroke-linecap="round" stroke-linejoin="round" fill="#729FCF" fill-rule="nonzero" opacity="0.11364"></path>
            <path d="M129.047587,136.676 L145.636694,136.676" id="path9800" stroke="#000000" stroke-linecap="round" stroke-linejoin="round" fill="#729FCF" fill-rule="nonzero" opacity="0.11364"></path>
            <path d="M128.789302,126.522154 L145.632323,126.522154" id="path9782" stroke="#000000" stroke-linecap="round" stroke-linejoin="round" fill="#729FCF" fill-rule="nonzero" opacity="0.11364"></path>
            <path d="M128.772264,125.393949 L145.632434,125.393949" id="path9780" stroke="#000000" stroke-linecap="round" stroke-linejoin="round" fill="#729FCF" fill-rule="nonzero" opacity="0.11364"></path>
            <path d="M128.722864,123.137538 L137.176183,123.137538" id="path9776" stroke="#000000" stroke-linecap="round" stroke-linejoin="round" fill="#729FCF" fill-rule="nonzero" opacity="0.11364"></path>
            <path d="M128.696145,122.009615 L136.873974,122.009615" id="path9774" stroke="#000000" stroke-linecap="round" stroke-linejoin="round" fill="#729FCF" fill-rule="nonzero" opacity="0.11364"></path>
            <path d="M128.945579,133.291385 L145.634813,133.291385" id="path9794" stroke="#000000" stroke-linecap="round" stroke-linejoin="round" fill="#729FCF" fill-rule="nonzero" opacity="0.11364"></path>
            <path d="M128.925332,132.163179 L145.634481,132.163179" id="path9792" stroke="#000000" stroke-linecap="round" stroke-linejoin="round" fill="#729FCF" fill-rule="nonzero" opacity="0.11364"></path>
            <path d="M128.891311,131.034974 L145.633651,131.034974" id="path9790" stroke="#000000" stroke-linecap="round" stroke-linejoin="round" fill="#729FCF" fill-rule="nonzero" opacity="0.11364"></path>
            <path d="M128.874328,128.778564 L145.633817,128.778564" id="path9786" stroke="#000000" stroke-linecap="round" stroke-linejoin="round" fill="#729FCF" fill-rule="nonzero" opacity="0.11364"></path>
            <path d="M128.945579,134.41959 L145.634813,134.41959" id="path9796" stroke="#000000" stroke-linecap="round" stroke-linejoin="round" fill="#729FCF" fill-rule="nonzero" opacity="0.11364"></path>
            <path d="M129.047587,137.804205 L145.636694,137.804205" id="path9802" stroke="#000000" stroke-linecap="round" stroke-linejoin="round" fill="#729FCF" fill-rule="nonzero" opacity="0.11364"></path>
            <path d="M129.356932,139.102769 C129.366004,139.278769 129.25686,139.396103 129.081166,139.337436 C128.905417,139.278769 128.784213,139.161436 128.775196,138.985436 L128.250936,120.897487 C128.241864,120.7216 128.342268,120.61521 128.51503,120.61521 L136.493157,120.588303 C136.666306,120.588303 137.008732,120.757815 137.119923,121.334159 L137.437455,122.922615 C137.201243,122.659969 137.205668,122.651846 137.084519,122.269892 L136.859923,121.559574 C136.738774,121.149133 136.473796,121.090297 136.3012,121.090297 L129.171668,121.090297 C128.998962,121.090297 128.889817,121.207744 128.898889,121.383856 L129.417783,139.161549 L129.357153,139.102882 L129.356932,139.102769 Z" id="path219" fill="url(#linearGradient-6)" fill-rule="nonzero" opacity="0.45143"></path>
            <path d="M145.900862,123.691423 C145.90374,123.634336 145.827164,123.546206 145.765558,123.546206 L138.262807,123.544972 C138.262807,123.544972 138.787326,123.890611 139.530058,123.895491 L145.894528,123.937233 C145.900862,123.81277 145.896256,123.786725 145.900862,123.691423 L145.900862,123.691423 Z" id="path221" fill-opacity="0.50847" fill="#FFFFFF" fill-rule="nonzero" transform="translate(142.081874, 124.044972) rotate(-2.997089) translate(-142.081874, -124.044972) "></path>
            <path d="M148.00817,139.467744 C148.640468,139.442923 149.094085,138.848923 149.140553,138.158462 C149.578128,131.643641 150.058298,126.181436 150.058298,126.181436 C150.098128,126.041538 149.965362,125.902205 149.792766,125.902205 L130.779021,125.902205 C130.7788,125.902205 129.75523,138.237436 129.75523,138.237436 C129.691889,138.791385 129.497443,139.255077 128.897894,139.468872 L148.008447,139.467744 L148.00817,139.467744 Z" id="path233" stroke="#3465A4" stroke-linejoin="round" fill="url(#linearGradient-7)" fill-rule="nonzero"></path>
            <path d="M131.321813,126.466872 L149.461515,126.503538 L148.590791,137.786718 C148.544323,138.390872 148.341855,138.592256 147.555217,138.592256 C146.519643,138.592256 131.690791,138.574205 130.18777,138.574205 C130.31694,138.393128 130.37237,138.016308 130.373089,138.007282 L131.321923,126.466872 L131.321813,126.466872 Z" id="path304" stroke="url(#linearGradient-8)" stroke-linecap="round" opacity="0.46591"></path>
            <path d="M131.321813,126.330923 L130.67646,135.155179 C130.67646,135.155179 135.265957,132.815282 141.002332,132.815282 C146.738706,132.815282 149.607226,126.330923 149.607226,126.330923 L131.321481,126.330923 L131.321813,126.330923 Z" id="path323" fill-opacity="0.089286" fill="#FFFFFF"></path>
            <rect id="rect6709" fill="url(#linearGradient-1)" fill-rule="nonzero" opacity="0.40206" x="66.4838365" y="135.921903" width="16.7656355" height="5.63110673"></rect>
            <path d="M83.2504733,135.922139 L83.2504733,141.552892 C85.0386743,141.563487 87.5732939,140.29132 87.5732939,138.737104 C87.5732939,137.183005 85.5778379,135.922139 83.2504733,135.922139 Z" id="path6711" fill="url(#radialGradient-2)" fill-rule="nonzero" opacity="0.40206"></path>
            <path d="M66.4838365,135.922139 L66.4838365,141.552892 C64.6966368,141.563487 62.1610159,140.29132 62.1610159,138.737104 C62.1610159,137.183005 64.1572229,135.922139 66.4838365,135.922139 L66.4838365,135.922139 Z" id="path6713" fill="url(#radialGradient-3)" fill-rule="nonzero" opacity="0.40206"></path>
            <path d="M64.5014213,139.002923 C64.5134809,139.238154 64.755834,139.472821 64.9861277,139.472821 L82.3159574,139.472821 C82.5460851,139.472821 82.7645957,139.238154 82.7524255,139.002923 L82.2346383,123.644667 C82.2224681,123.409436 81.9801702,123.174769 81.7494894,123.174769 L74.4086383,123.174769 C74.1397872,123.174769 73.7254468,122.996513 73.6330638,122.550533 L73.2945106,120.918585 C73.208766,120.503574 72.8065957,120.333103 72.5764681,120.333103 L64.4008511,120.333103 C64.1706128,120.333103 63.9523787,120.567938 63.9644383,120.802774 L64.5014213,139.002979 L64.5014213,139.002923 Z" id="path216" stroke="url(#linearGradient-5)" stroke-linecap="round" stroke-linejoin="round" fill="url(#radialGradient-4)" fill-rule="nonzero"></path>
            <path d="M64.8913106,129.906769 L81.6336511,129.906769" id="path9788" stroke="#000000" stroke-linecap="round" stroke-linejoin="round" fill="#729FCF" fill-rule="nonzero" opacity="0.11364"></path>
            <path d="M64.7893021,127.650359 L81.6323234,127.650359" id="path9784" stroke="#000000" stroke-linecap="round" stroke-linejoin="round" fill="#729FCF" fill-rule="nonzero" opacity="0.11364"></path>
            <path d="M64.7552809,124.265744 L81.6314936,124.265744" id="path9778" stroke="#000000" stroke-linecap="round" stroke-linejoin="round" fill="#729FCF" fill-rule="nonzero" opacity="0.11364"></path>
            <path d="M64.9796,135.547795 L81.6356426,135.547795" id="path9798" stroke="#000000" stroke-linecap="round" stroke-linejoin="round" fill="#729FCF" fill-rule="nonzero" opacity="0.11364"></path>
            <path d="M65.0475872,136.676 L81.6366936,136.676" id="path9800" stroke="#000000" stroke-linecap="round" stroke-linejoin="round" fill="#729FCF" fill-rule="nonzero" opacity="0.11364"></path>
            <path d="M64.7893021,126.522154 L81.6323234,126.522154" id="path9782" stroke="#000000" stroke-linecap="round" stroke-linejoin="round" fill="#729FCF" fill-rule="nonzero" opacity="0.11364"></path>
            <path d="M64.7722638,125.393949 L81.632434,125.393949" id="path9780" stroke="#000000" stroke-linecap="round" stroke-linejoin="round" fill="#729FCF" fill-rule="nonzero" opacity="0.11364"></path>
            <path d="M64.7228638,123.137538 L73.176183,123.137538" id="path9776" stroke="#000000" stroke-linecap="round" stroke-linejoin="round" fill="#729FCF" fill-rule="nonzero" opacity="0.11364"></path>
            <path d="M64.6961447,122.009615 L72.8739745,122.009615" id="path9774" stroke="#000000" stroke-linecap="round" stroke-linejoin="round" fill="#729FCF" fill-rule="nonzero" opacity="0.11364"></path>
            <path d="M64.9455787,133.291385 L81.6348128,133.291385" id="path9794" stroke="#000000" stroke-linecap="round" stroke-linejoin="round" fill="#729FCF" fill-rule="nonzero" opacity="0.11364"></path>
            <path d="M64.9253319,132.163179 L81.6344809,132.163179" id="path9792" stroke="#000000" stroke-linecap="round" stroke-linejoin="round" fill="#729FCF" fill-rule="nonzero" opacity="0.11364"></path>
            <path d="M64.8913106,131.034974 L81.6336511,131.034974" id="path9790" stroke="#000000" stroke-linecap="round" stroke-linejoin="round" fill="#729FCF" fill-rule="nonzero" opacity="0.11364"></path>
            <path d="M64.8743277,128.778564 L81.633817,128.778564" id="path9786" stroke="#000000" stroke-linecap="round" stroke-linejoin="round" fill="#729FCF" fill-rule="nonzero" opacity="0.11364"></path>
            <path d="M64.9455787,134.41959 L81.6348128,134.41959" id="path9796" stroke="#000000" stroke-linecap="round" stroke-linejoin="round" fill="#729FCF" fill-rule="nonzero" opacity="0.11364"></path>
            <path d="M65.0475872,137.804205 L81.6366936,137.804205" id="path9802" stroke="#000000" stroke-linecap="round" stroke-linejoin="round" fill="#729FCF" fill-rule="nonzero" opacity="0.11364"></path>
            <path d="M65.3569319,139.102769 C65.3660043,139.278769 65.2568596,139.396103 65.081166,139.337436 C64.905417,139.278769 64.7842128,139.161436 64.7751957,138.985436 L64.2509362,120.897487 C64.2418638,120.7216 64.3422681,120.61521 64.5150298,120.61521 L72.4931574,120.588303 C72.6663064,120.588303 73.0087319,120.757815 73.1199234,121.334159 L73.4374553,122.922615 C73.2012426,122.659969 73.2056681,122.651846 73.0845191,122.269892 L72.8599234,121.559574 C72.7387745,121.149133 72.4737957,121.090297 72.3012,121.090297 L65.1716681,121.090297 C64.9989617,121.090297 64.889817,121.207744 64.8988894,121.383856 L65.417783,139.161549 L65.3571532,139.102882 L65.3569319,139.102769 Z" id="path219" fill="url(#linearGradient-6)" fill-rule="nonzero" opacity="0.45143"></path>
            <path d="M81.9008617,123.691423 C81.9037405,123.634336 81.8271642,123.546206 81.7655577,123.546206 L74.2628069,123.544972 C74.2628069,123.544972 74.7873259,123.890611 75.5300585,123.895491 L81.8945283,123.937233 C81.9008617,123.81277 81.8962556,123.786725 81.9008617,123.691423 L81.9008617,123.691423 Z" id="path221" fill-opacity="0.50847" fill="#FFFFFF" fill-rule="nonzero" transform="translate(78.081874, 124.044972) rotate(-2.997089) translate(-78.081874, -124.044972) "></path>
            <path d="M84.0081702,139.467744 C84.6404681,139.442923 85.0940851,138.848923 85.1405532,138.158462 C85.5781277,131.643641 86.0582979,126.181436 86.0582979,126.181436 C86.0981277,126.041538 85.9653617,125.902205 85.792766,125.902205 L66.7790213,125.902205 C66.7788,125.902205 65.7552298,138.237436 65.7552298,138.237436 C65.6918894,138.791385 65.4974426,139.255077 64.8978936,139.468872 L84.0084468,139.467744 L84.0081702,139.467744 Z" id="path233" stroke="#3465A4" stroke-linejoin="round" fill="url(#linearGradient-7)" fill-rule="nonzero"></path>
            <path d="M67.3218128,126.466872 L85.4615149,126.503538 L84.5907915,137.786718 C84.5443234,138.390872 84.3418553,138.592256 83.555217,138.592256 C82.5196426,138.592256 67.6907915,138.574205 66.1877702,138.574205 C66.3169404,138.393128 66.3723702,138.016308 66.3730894,138.007282 L67.3219234,126.466872 L67.3218128,126.466872 Z" id="path304" stroke="url(#linearGradient-8)" stroke-linecap="round" opacity="0.46591"></path>
            <path d="M67.3218128,126.330923 L66.6764596,135.155179 C66.6764596,135.155179 71.2659574,132.815282 77.0023319,132.815282 C82.7387064,132.815282 85.6072255,126.330923 85.6072255,126.330923 L67.3214809,126.330923 L67.3218128,126.330923 Z" id="path323" fill-opacity="0.089286" fill="#FFFFFF"></path>
            <rect id="rect6709" fill="url(#linearGradient-1)" fill-rule="nonzero" opacity="0.40206" x="18.4838365" y="168.921903" width="16.7656355" height="5.63110673"></rect>
            <path d="M35.2504733,168.922139 L35.2504733,174.552892 C37.0386743,174.563487 39.5732939,173.29132 39.5732939,171.737104 C39.5732939,170.183005 37.5778379,168.922139 35.2504733,168.922139 Z" id="path6711" fill="url(#radialGradient-2)" fill-rule="nonzero" opacity="0.40206"></path>
            <path d="M18.4838365,168.922139 L18.4838365,174.552892 C16.6966368,174.563487 14.1610159,173.29132 14.1610159,171.737104 C14.1610159,170.183005 16.1572229,168.922139 18.4838365,168.922139 L18.4838365,168.922139 Z" id="path6713" fill="url(#radialGradient-3)" fill-rule="nonzero" opacity="0.40206"></path>
            <path d="M16.5014213,172.002923 C16.5134809,172.238154 16.755834,172.472821 16.9861277,172.472821 L34.3159574,172.472821 C34.5460851,172.472821 34.7645957,172.238154 34.7524255,172.002923 L34.2346383,156.644667 C34.2224681,156.409436 33.9801702,156.174769 33.7494894,156.174769 L26.4086383,156.174769 C26.1397872,156.174769 25.7254468,155.996513 25.6330638,155.550533 L25.2945106,153.918585 C25.208766,153.503574 24.8065957,153.333103 24.5764681,153.333103 L16.4008511,153.333103 C16.1706128,153.333103 15.9523787,153.567938 15.9644383,153.802774 L16.5014213,172.002979 L16.5014213,172.002923 Z" id="path216" stroke="url(#linearGradient-5)" stroke-linecap="round" stroke-linejoin="round" fill="url(#radialGradient-4)" fill-rule="nonzero"></path>
            <path d="M16.8913106,162.906769 L33.6336511,162.906769" id="path9788" stroke="#000000" stroke-linecap="round" stroke-linejoin="round" fill="#729FCF" fill-rule="nonzero" opacity="0.11364"></path>
            <path d="M16.7893021,160.650359 L33.6323234,160.650359" id="path9784" stroke="#000000" stroke-linecap="round" stroke-linejoin="round" fill="#729FCF" fill-rule="nonzero" opacity="0.11364"></path>
            <path d="M16.7552809,157.265744 L33.6314936,157.265744" id="path9778" stroke="#000000" stroke-linecap="round" stroke-linejoin="round" fill="#729FCF" fill-rule="nonzero" opacity="0.11364"></path>
            <path d="M16.9796,168.547795 L33.6356426,168.547795" id="path9798" stroke="#000000" stroke-linecap="round" stroke-linejoin="round" fill="#729FCF" fill-rule="nonzero" opacity="0.11364"></path>
            <path d="M17.0475872,169.676 L33.6366936,169.676" id="path9800" stroke="#000000" stroke-linecap="round" stroke-linejoin="round" fill="#729FCF" fill-rule="nonzero" opacity="0.11364"></path>
            <path d="M16.7893021,159.522154 L33.6323234,159.522154" id="path9782" stroke="#000000" stroke-linecap="round" stroke-linejoin="round" fill="#729FCF" fill-rule="nonzero" opacity="0.11364"></path>
            <path d="M16.7722638,158.393949 L33.632434,158.393949" id="path9780" stroke="#000000" stroke-linecap="round" stroke-linejoin="round" fill="#729FCF" fill-rule="nonzero" opacity="0.11364"></path>
            <path d="M16.7228638,156.137538 L25.176183,156.137538" id="path9776" stroke="#000000" stroke-linecap="round" stroke-linejoin="round" fill="#729FCF" fill-rule="nonzero" opacity="0.11364"></path>
            <path d="M16.6961447,155.009615 L24.8739745,155.009615" id="path9774" stroke="#000000" stroke-linecap="round" stroke-linejoin="round" fill="#729FCF" fill-rule="nonzero" opacity="0.11364"></path>
            <path d="M16.9455787,166.291385 L33.6348128,166.291385" id="path9794" stroke="#000000" stroke-linecap="round" stroke-linejoin="round" fill="#729FCF" fill-rule="nonzero" opacity="0.11364"></path>
            <path d="M16.9253319,165.163179 L33.6344809,165.163179" id="path9792" stroke="#000000" stroke-linecap="round" stroke-linejoin="round" fill="#729FCF" fill-rule="nonzero" opacity="0.11364"></path>
            <path d="M16.8913106,164.034974 L33.6336511,164.034974" id="path9790" stroke="#000000" stroke-linecap="round" stroke-linejoin="round" fill="#729FCF" fill-rule="nonzero" opacity="0.11364"></path>
            <path d="M16.8743277,161.778564 L33.633817,161.778564" id="path9786" stroke="#000000" stroke-linecap="round" stroke-linejoin="round" fill="#729FCF" fill-rule="nonzero" opacity="0.11364"></path>
            <path d="M16.9455787,167.41959 L33.6348128,167.41959" id="path9796" stroke="#000000" stroke-linecap="round" stroke-linejoin="round" fill="#729FCF" fill-rule="nonzero" opacity="0.11364"></path>
            <path d="M17.0475872,170.804205 L33.6366936,170.804205" id="path9802" stroke="#000000" stroke-linecap="round" stroke-linejoin="round" fill="#729FCF" fill-rule="nonzero" opacity="0.11364"></path>
            <path d="M17.3569319,172.102769 C17.3660043,172.278769 17.2568596,172.396103 17.081166,172.337436 C16.905417,172.278769 16.7842128,172.161436 16.7751957,171.985436 L16.2509362,153.897487 C16.2418638,153.7216 16.3422681,153.61521 16.5150298,153.61521 L24.4931574,153.588303 C24.6663064,153.588303 25.0087319,153.757815 25.1199234,154.334159 L25.4374553,155.922615 C25.2012426,155.659969 25.2056681,155.651846 25.0845191,155.269892 L24.8599234,154.559574 C24.7387745,154.149133 24.4737957,154.090297 24.3012,154.090297 L17.1716681,154.090297 C16.9989617,154.090297 16.889817,154.207744 16.8988894,154.383856 L17.417783,172.161549 L17.3571532,172.102882 L17.3569319,172.102769 Z" id="path219" fill="url(#linearGradient-6)" fill-rule="nonzero" opacity="0.45143"></path>
            <path d="M33.9008617,156.691423 C33.9037405,156.634336 33.8271642,156.546206 33.7655577,156.546206 L26.2628069,156.544972 C26.2628069,156.544972 26.7873259,156.890611 27.5300585,156.895491 L33.8945283,156.937233 C33.9008617,156.81277 33.8962556,156.786725 33.9008617,156.691423 L33.9008617,156.691423 Z" id="path221" fill-opacity="0.50847" fill="#FFFFFF" fill-rule="nonzero" transform="translate(30.081874, 157.044972) rotate(-2.997089) translate(-30.081874, -157.044972) "></path>
            <path d="M36.0081702,172.467744 C36.6404681,172.442923 37.0940851,171.848923 37.1405532,171.158462 C37.5781277,164.643641 38.0582979,159.181436 38.0582979,159.181436 C38.0981277,159.041538 37.9653617,158.902205 37.792766,158.902205 L18.7790213,158.902205 C18.7788,158.902205 17.7552298,171.237436 17.7552298,171.237436 C17.6918894,171.791385 17.4974426,172.255077 16.8978936,172.468872 L36.0084468,172.467744 L36.0081702,172.467744 Z" id="path233" stroke="#3465A4" stroke-linejoin="round" fill="url(#linearGradient-7)" fill-rule="nonzero"></path>
            <path d="M19.3218128,159.466872 L37.4615149,159.503538 L36.5907915,170.786718 C36.5443234,171.390872 36.3418553,171.592256 35.555217,171.592256 C34.5196426,171.592256 19.6907915,171.574205 18.1877702,171.574205 C18.3169404,171.393128 18.3723702,171.016308 18.3730894,171.007282 L19.3219234,159.466872 L19.3218128,159.466872 Z" id="path304" stroke="url(#linearGradient-8)" stroke-linecap="round" opacity="0.46591"></path>
            <path d="M19.3218128,159.330923 L18.6764596,168.155179 C18.6764596,168.155179 23.2659574,165.815282 29.0023319,165.815282 C34.7387064,165.815282 37.6072255,159.330923 37.6072255,159.330923 L19.3214809,159.330923 L19.3218128,159.330923 Z" id="path323" fill-opacity="0.089286" fill="#FFFFFF"></path>
            <path d="M32,114.895056 C33.470621,112.518889 37.9493802,104.497105 45.2301045,101.612078 C52.5108288,98.7270498 60.4763481,98.9992077 63.7571699,100.317419 C65.1215897,100.865633 68.1354331,103.075869 70.4564619,105.082226 C71.1666475,105.696129 71.8119698,106.290944 72.3253313,106.81322 C74.5164609,109.042396 79.1459242,118.786779 79.1459242,118.786779" id="Path-2" stroke="#979797" stroke-dasharray="1,1"></path>
            <path id="Path-2-decoration-1" d="M40.2346397,107.290406 L32,114.895056 L35.1327226,104.132805" stroke="#979797" stroke-dasharray="1,1"></path>
            <path d="M27.7431111,109.596364 C29.2137321,107.220197 38.7230434,90.8962405 46.0037677,88.0112127 C49.889643,86.4714129 77.8422191,78.7790227 97.3008113,81.7018029 C116.759404,84.6245831 124.180757,95.8388144 125.710536,96.4534687 C127.074955,97.001683 129.135433,100.711153 131.456462,102.71751 C132.166648,103.331413 132.81197,103.926228 133.325331,104.448503 C135.516461,106.67768 140.145924,116.422063 140.145924,116.422063" id="Path-2" stroke="#979797" stroke-dasharray="1,1"></path>
            <path id="Path-2-decoration-1" d="M35.9777508,101.991714 L27.7431111,109.596364 L30.8758336,98.834113" stroke="#979797" stroke-dasharray="1,1"></path>
            <text id="../00_BWGrainfall_da" font-family="Iosevka" font-size="3" font-weight="normal" fill="#000000">
                <tspan x="70" y="100">../00_BWGrainfall_data/Data</tspan>
            </text>
            <text id="../00_BWGrainfall_da" font-family="Iosevka" font-size="3" font-weight="normal" fill="#000000">
                <tspan x="126" y="91">../00_BWGrainfall_data/Data</tspan>
            </text>
        </g>
    </g>
</svg>